Coordinates
version=1
nRows=7
nColumns=40
inDegrees=yes

Units are S.I. units (second, meters, Newtons, ...)
If the header above contains a line with 'inDegrees', this indicates whether rotational values are in degrees (yes) or radians (no).

endheader
time	pelvis_tilt	pelvis_list	pelvis_rotation	pelvis_tx	pelvis_ty	pelvis_tz	hip_flexion_r	hip_adduction_r	hip_rotation_r	knee_angle_r	knee_angle_r_beta	ankle_angle_r	subtalar_angle_r	mtp_angle_r	hip_flexion_l	hip_adduction_l	hip_rotation_l	knee_angle_l	knee_angle_l_beta	ankle_angle_l	subtalar_angle_l	mtp_angle_l	lumbar_extension	lumbar_bending	lumbar_rotation	arm_flex_r	arm_add_r	arm_rot_r	elbow_flex_r	pro_sup_r	wrist_flex_r	wrist_dev_r	arm_flex_l	arm_add_l	arm_rot_l	elbow_flex_l	pro_sup_l	wrist_flex_l	wrist_dev_l
      0.12000000	     -2.96798550	    -10.77634614	     89.94484558	      0.25359529	      0.94163200	      2.03543820	     40.75545175	     -2.34838425	     -2.32594468	      4.54484138	      0.07932245	      0.63295343	      0.00000000	      0.00000000	    -12.90316916	      6.39518914	      4.20159770	     -0.50020270	     -0.00873018	     14.00803612	      0.00000000	     -0.00000000	     -1.01372537	     -4.57399142	     -4.84162079	     -0.00000000	     -0.00000000	      0.00000000	      0.00000000	      0.00000000	      0.00000000	      0.00000000	     -0.00000000	     -0.00000000	     -0.00000000	      0.00000000	      0.00000000	     -0.00000000	     -0.00000000
      0.13000000	     -2.81385383	    -11.11235992	     89.94636765	      0.25449812	      0.93794875	      2.01471304	     41.24337390	     -2.01904137	     -2.07361022	      4.24864438	      0.07415283	      0.60170885	     -0.00000000	     -0.00000000	    -13.39169709	      6.12972286	      4.43340900	      0.38368691	      0.00669660	     13.70348661	      0.00000000	     -0.00000000	     -0.61141816	     -4.35615943	     -4.88180747	      0.00000000	      0.00000000	     -0.00000000	      0.00000000	      0.00000000	     -0.00000000	      0.00000000	     -0.00000000	     -0.00000000	     -0.00000000	      0.00000000	      0.00000000	      0.00000000	     -0.00000000
      0.14000000	     -2.59426440	    -11.41744148	     89.94604308	      0.25542017	      0.93496207	      1.99377398	     41.63304660	     -1.61345561	     -1.76125964	      4.50082909	      0.07855429	      0.30802122	      0.00000000	      0.00000000	    -13.72734094	      5.80232741	      4.49181425	      1.52687661	      0.02664902	     13.16355696	      0.00000000	      0.00000000	     -0.24258966	     -4.05497602	     -4.85709063	      0.00000000	      0.00000000	      0.00000000	      0.00000000	      0.00000000	      0.00000000	      0.00000000	      0.00000000	      0.00000000	      0.00000000	      0.00000000	      0.00000000	      0.00000000	      0.00000000
      0.15000000	     -2.14114485	    -11.72176279	     89.94501667	      0.25644869	      0.93276177	      1.97253685	     41.80186330	     -0.96223939	     -1.64558121	      4.92259947	      0.08591557	     -0.60592553	      0.00000000	      0.00000000	    -13.75040458	      5.24161902	      4.04915898	      3.14093158	      0.05481960	     12.16245333	      0.00000000	     -0.00000000	      0.16054904	     -3.49092881	     -4.80970772	     -0.00000000	     -0.00000000	     -0.00000000	      0.00000000	      0.00000000	      0.00000000	     -0.00000000	     -0.00000000	     -0.00000000	      0.00000000	      0.00000000	      0.00000000	     -0.00000000	     -0.00000000
      0.16000000	     -1.69828892	    -11.92948519	     89.94341098	      0.25738027	      0.93141248	      1.95119879	     41.94038306	     -0.35243007	     -1.82324416	      5.96341971	      0.10408131	     -1.67535691	     -0.00000000	     -0.00000000	    -13.58892075	      4.70751891	      3.68039376	      5.14673804	      0.08982752	     10.61073734	      0.00000000	     -0.00000000	      0.43797945	     -2.92455192	     -4.75257835	     -0.00000000	     -0.00000000	     -0.00000000	      0.00000000	      0.00000000	      0.00000000	      0.00000000	     -0.00000000	     -0.00000000	      0.00000000	      0.00000000	      0.00000000	     -0.00000000	      0.00000000
      0.17000000	     -1.20020779	    -12.06921100	     89.94097731	      0.25829366	      0.93090235	      1.92969949	     41.96392171	      0.29072902	     -2.06772240	      7.30628686	      0.12751876	     -3.07812775	      0.00000000	      0.00000000	    -13.15207058	      4.11622644	      3.15757239	      7.62878801	      0.13314747	      8.51023485	      0.00000000	      0.00000000	      0.63687773	     -2.29431575	     -4.68043990	      0.00000000	      0.00000000	      0.00000000	      0.00000000	      0.00000000	      0.00000000	      0.00000000	      0.00000000	      0.00000000	      0.00000000	      0.00000000	      0.00000000	      0.00000000	      0.00000000
      0.18000000	     -0.65770698	    -12.12810166	     89.93715948	      0.25915816	      0.93120827	      1.90808176	     41.86051199	      0.94880962	     -2.30057913	      8.85125874	      0.15448361	     -4.71390577	      0.00000000	      0.00000000	    -12.40965382	      3.46497054	      2.46388135	     10.64471709	      0.18578536	      5.78161796	      0.00000000	      0.00000000	      0.76154416	     -1.59696368	     -4.56935708	      0.00000000	      0.00000000	      0.00000000	      0.00000000	      0.00000000	      0.00000000	      0.00000000	      0.00000000	      0.00000000	      0.00000000	      0.00000000	      0.00000000	      0.00000000	      0.00000000
